<svg xmlns="http://www.w3.org/2000/svg" width="2500" height="2500" viewBox="0 0 192.756 192.756"><g fill-rule="evenodd" clip-rule="evenodd"><path d="M107.756 80.912c2.139 5.074 1.008 11.402-2.967 15.284-3.789 3.943-9.873 5.168-14.948 3.18-5.227-2.018-8.987-7.397-8.834-13.053-.122-5.594 3.577-10.944 8.743-12.931 4.892-1.986 10.913-.886 14.704 2.782 1.497 1.406 2.536 3.026 3.302 4.738z"/><path d="M106.195 80.178c2.324 3.882 2.018 9.874-.672 13.512-2.965 4.158-7.49 6.113-12.534 5.441-4.371-.52-8.834-4.127-10.21-8.407-1.65-4.677-.489-10.027 3.026-13.481 3.546-3.638 9.263-4.799 13.94-2.843 2.569.978 5.136 3.271 6.45 5.778z"/><path d="M95.436 80.361c.061.245-.062.428-.245.52-.183.092-.367 0-.489-.091-.152-.123-.091-.367-.061-.52.061-.123.214-.153.306-.214.214 0 .428.091.489.305zM93.724 80.484c.061.244-.031.458-.275.55-.214.031-.428-.061-.52-.244-.061-.184-.03-.367.092-.489.214-.184.611-.123.703.183zM97.117 80.453c.092.214-.031.489-.276.581-.214.031-.428-.061-.519-.244-.123-.245.061-.489.275-.581.214-.062.46.03.52.244zM92.073 80.851a.483.483 0 0 1-.061.458c-.153.153-.397.183-.55.061-.214-.123-.244-.397-.152-.581a.573.573 0 0 1 .336-.214c.183 0 .366.092.427.276zM98.768 80.82c.092.245 0 .489-.215.581a.484.484 0 0 1-.457-.062c-.184-.184-.154-.397-.062-.581.214-.214.581-.214.734.062z"/><path d="M95.039 81.645l.397-.581.672.03.367.673.55-.489c.244.092.611.092.734.336.061.184.092.367.182.55.275-.153.49-.458.795-.397.582 0 .459.55.551.948.184-.031.367-.153.551-.214l.029.978c-2.719-1.864-7.03-1.864-9.75 0v-.978l.55.245c.062-.245.062-.52.092-.795.275-.03.55-.397.825-.092l.459.306.245-.703.611-.184c.214.123.397.367.612.489.214-.306.274-.856.825-.703.335-.03.396.489.703.581z"/><path d="M90.392 81.339c.152.092.152.367.061.52-.091.184-.336.214-.55.153-.245-.092-.245-.367-.184-.581a.46.46 0 0 1 .275-.214c.153 0 .276 0 .398.122zM100.357 81.492a.46.46 0 0 1-.275.55c-.215.03-.428 0-.52-.214-.061-.184-.031-.367.092-.489.213-.214.612-.152.703.153zM99.227 83.388l-8.437.03c2.383-1.406 6.021-1.437 8.437-.03z"/><path d="M94.732 85.008h-4.799l-1.1-1.193h5.899v1.193zM97.27 85.344h-2.171v-1.498h2.171v1.498zM100.785 84.182h-3.148v-.336h3.455l-.307.336z"/><path d="M100.449 84.458c-.092.122-.184.245-.307.367h-2.506v-.367h2.813zM99.686 85.314l-2.049.03v-.336h2.322l-.273.306z"/><path d="M94.732 85.65h-4.554v-.367h4.554v.367zM97.27 86.017h-2.171v-.337h2.171v.337zM99.623 87.086h-2.047V85.68h2.047v1.406zM94.732 87.086h-4.554v-1.161h4.554v1.161zM97.27 86.536h-2.171V86.2h2.171v.336z"/><path d="M97.27 87.086h-2.171v-.366h2.171v.366zM92.287 88.951h-2.109v-1.559h2.109v1.559zM94.702 87.759h-2.078v-.367h2.078v.367zM99.623 88.554h-4.554v-1.162h4.554v1.162z"/><path d="M94.702 88.34h-2.078v-.367h2.078v.367z"/><path d="M94.702 88.951h-2.078v-.428h2.078v.428zM99.623 89.288h-4.554v-.337h4.554v.337zM92.287 89.593h-2.109v-.367h2.109v.367zM94.702 91.397c-.58-.428-1.345-.52-2.078-.581v-1.59h2.078v2.171zM99.623 89.563c-.061.336.154.855-.305.978-1.406.306-2.996.091-4.219.825l-.03-1.803h4.554z"/><path d="M92.287 90.144h-2.079l-.03-.337h2.109v.337z"/><path d="M92.287 90.786c-.704 0-1.406 0-1.895-.428h1.895v.428z"/><path d="M61.167 103.471v1.773c-1.682-.703-3.148-1.986-5.228-1.527-1.223.121-2.445.916-2.904 2.109-.52 1.375-.275 3.117.825 4.156 1.223 1.102 3.118 1.223 4.647.766 1.11-.43 1.772-.887 2.659-1.316v1.773c-3.087.734-7.062.826-9.721-.947-1.07-.734-1.987-1.834-1.834-3.18.245-2.047 2.446-3.24 4.188-3.697 2.263-.551 5.137-.551 7.368.09zM140.221 105.367l.029 1.344c-1.314-.609-2.629-1.619-4.279-1.1-.795.123-1.59.764-1.896 1.529-.428 1.008-.273 2.354.521 3.117.887.947 2.293 1.01 3.516.734l2.139-1.039v1.344c-2.139.52-4.982.611-6.908-.428-.947-.488-1.986-1.406-1.926-2.568-.031-1.191 1.131-2.17 2.139-2.629 1.895-.915 4.585-.823 6.665-.304zM74.19 111.021l1.101.551h-4.402l1.1-.551-.825-1.283h-4.249l-.856 1.283 1.039.551h-3.424l1.131-.58 4.127-5.931h1.192l4.066 5.96zM87.946 107.324c.306.396.434 1.502-.025 2.104-2.384 3.24-6.883 1.809-10.613 2.145l1.07-.551.031-5.379-1.101-.582c3.73.306 8.223-.948 10.638 2.263zM94.304 105.643v5.349l1.101.58h-4.188l1.101-.551.03-5.349-1.131-.611h4.188l-1.101.582zM101.549 105.643v5.378h3.148l1.407-.732v1.283h-7.672l1.13-.58v-5.32l-1.13-.611h4.218l-1.101.582zM111.699 105.672v5.349h3.149l1.435-.732v1.283h-7.703l1.102-.551.029-5.378-1.131-.582h4.25l-1.131.611zM128.297 111.021l1.133.551h-4.403l1.071-.551-.858-1.283h-4.219l-.884 1.283 1.099.551h-3.455l1.131-.58 4.127-5.931h1.223l4.035 5.96z"/><path d="M15.069 114.936v1.039c-1.009-.58-2.17-1.223-3.454-.764-.581.213-1.101.795-1.253 1.375-.123.703 0 1.406.428 1.926.703.826 1.926.855 2.874.551l1.406-.703v1.008c-2.17.49-5.075.562-6.358-1.406a1.911 1.911 0 0 1-.184-1.16c.607-1.686 2.293-2.018 3.791-2.141.946.06 1.924-.001 2.75.275zM132.24 114.936l-.916.824c-.357-.547-.473-.832-1.742-.703-.52.031-1.156.119-1.346.551-.123.275.15.533.428.643 1.07.396 2.232.703 3.332 1.131.289.078.49.428.49.764 0 .551-.52.979-.979 1.162-1.498.611-3.271.213-4.891.123l.947-.887c.795.58 1.834 1.039 2.842.641.275-.092.627-.225.771-.578.092-.184.047-.439-.25-.564l-.459-.172c-1.131-.365-2.324-.549-3.303-1.223a.834.834 0 0 1-.305-.887c.52-.947 1.619-.947 2.598-1.068.965-.091 1.867.151 2.783.243zM73.365 119.184l.825.398h-3.301l.825-.428-.612-.918h-3.209c-.214.307-.367.611-.581.887.214.184.52.307.795.459h-2.599l.856-.459 3.026-4.371h.948l3.027 4.432zM83.544 114.752c-.306.152-.643.275-.856.459v1.559l3.623.031v-1.59l-.811-.459h3.149l-.826.428v3.975l.795.428H85.5l.811-.428v-1.957l-3.592-.031-.03 1.957.825.459h-3.148c.275-.152.611-.275.856-.49v-3.881l-.856-.459h3.178v-.001z"/><path d="M59.15 116.279v.734c-.795-.52-1.926-.887-2.843-.428-.459.184-.887.672-.979 1.131-.03.551.306.979.733 1.283.673.338 1.651.52 2.354.154v-1.131l-.581-.307h2.201l-.581.307v1.344c-1.712.428-3.852.428-5.167-.824-.213-.275-.305-.611-.213-.979.471-1.186 2.012-1.439 3.24-1.498a6.131 6.131 0 0 1 1.836.214zM99.807 116.311v.703c-.629-.406-1.283-.826-2.17-.611-.58.061-1.162.367-1.498.918-.153.213-.196.484-.122.824.155.756 1.284 1.223 2.171 1.193.305 0 .611-.031.855-.184.012-.492.004-1.145.004-1.145l-.555-.293h2.201l-.58.275-.061 1.375c-1.652.428-3.792.428-5.076-.795-.184-.213-.306-.428-.306-.732.153-1.131 1.376-1.438 2.262-1.652.949-.121 1.959-.121 2.875.124zM21.611 116.617c.114.045.354.398.183.703-.25.371-.734.488-1.162.58l.031.061c.672.582 1.253 1.285 2.018 1.621h-1.498l-1.651-1.59h-.729v1.23l.546.328.031.031h-2.232l.581-.307.031-2.812-.611-.336c1.527.093 3.208-.243 4.462.491zM28.061 116.83c-.643-.703-1.753-.438-2.645-.428v1.162c.642-.031 1.452.244 1.941-.275v.887c-.489-.49-1.3-.244-1.941-.307v1.406c1.096-.018 2.102.211 2.645-.367v.674H23.75l.581-.275v-2.873l-.581-.307h4.311v.703zM34.633 119.215l.611.367h-2.323c.214-.092.581-.307.581-.307l-.495-.682h-2.165l-.458.682.55.307H29.1l.581-.307 2.201-3.148h.642l2.109 3.088zM41.236 116.83l-.703-.42H39.31v2.897l.581.275h-2.262l.58-.275v-2.897h-1.1l-.825.42v-.703h4.952v.703zM44.477 116.434v2.873l.55.275h-2.232l.581-.275v-2.873l-.581-.307h2.232l-.55.307zM51.232 118.359l.031-1.896-.581-.328h1.804l-.551.299-.03 3.484-3.944-3.057-.03 2.414.581.307h-1.834l.58-.307v-2.812l-.58-.328h1.742l2.812 2.224zM92.47 116.434v2.873c.184.061.367.152.55.275h-2.23l.581-.307v-2.842l-.581-.307h2.231l-.551.308zM104.361 116.127l-.582.371v1.066l2.586.03v-1.131l-.597-.336h2.261l-.58.307v2.873l.58.275h-2.261l.597-.275V117.9l-2.586-.031v1.406l.582.307h-2.23l.58-.307v-2.812l-.58-.336h2.23zM113.854 116.83c-.523-.572-1.52-.445-2.629-.428v1.162c.643-.031 1.451.184 1.941-.275v.887c-.49-.459-1.299-.275-1.941-.307v1.406c1.566-.023 2.189.139 2.629-.367v.674h-4.295l.58-.275v-2.873l-.58-.307h4.295v.703zM119.953 116.678a.52.52 0 0 1 .152.611c-.268.361-.734.52-1.162.611 0 0 1.256 1.408 2.018 1.682h-1.498c-.551-.551-1.1-1.07-1.65-1.59h-.705v1.268l.553.291v.031h-2.201l.551-.307v-2.812l-.551-.336c1.526.092 3.27-.305 4.493.551zM139.242 116.83l-.826-.42h-1.07v2.897l.55.275h-2.232l.582-.307v-2.865h-1.131l-.795.42v-.703h4.922v.703zM145.723 119.246l.611.336h-2.293l.52-.275-.428-.703H141.9l-.427.642.55.336h-1.834l.551-.275 2.231-3.18h.642l2.11 3.119zM152.051 118.389v-1.895l-.582-.367h1.834l-.549.307-.031 3.484c-1.314-1.01-2.629-2.018-3.975-3.057v2.414l.551.307h-1.834l.58-.275v-2.873l-.58-.307h1.742l2.844 2.262zM160.518 117.412c.152.428.053.857-.213 1.223-1.377 1.406-3.607.764-5.504.947l.582-.275v-2.873l-.582-.307c2.017.184 4.711-.531 5.717 1.285zM167.213 119.307l.58.275h-2.322l.549-.307-.434-.689-2.256.018-.428.671.551.307h-1.834l.58-.275 2.201-3.18h.641l2.172 3.18zM173.326 116.586c.244.184.336.428.244.703-.15.379-.781.533-1.191.643.672.549 1.283 1.344 2.078 1.65h-1.498l-1.65-1.59h-.75v1.24l.598.35h-2.262l.58-.275v-2.873l-.58-.307c1.527.092 3.177-.213 4.431.459zM181.273 117.625c.123.551-.244 1.039-.672 1.375-1.375.979-3.363.43-5.074.582l.58-.307v-2.812l-.58-.336c2.049.184 5.182-.475 5.746 1.498z"/><path d="M142.9 112.68a1.025 1.025 0 1 0 0-2.05 1.025 1.025 0 0 0 0 2.05z"/><path d="M142.676 112.223h-.199v-1.201h.457c.287 0 .438.102.438.346 0 .217-.133.307-.316.326l.336.529h-.213l-.311-.52h-.191v.52h-.001z"/><path d="M183.229 120.34a1.024 1.024 0 1 0-.003-2.049 1.024 1.024 0 0 0 .003 2.049z"/><path d="M183.002 119.885h-.199v-1.201h.457c.289 0 .438.104.438.346 0 .217-.133.309-.314.326l.334.529h-.213l-.311-.52h-.191v.52h-.001z"/><path d="M106.271 99.014a1.031 1.031 0 0 0 0-2.06 1.03 1.03 0 1 0 0 2.06z"/><path d="M106.045 98.555h-.201v-1.207h.461c.289 0 .439.102.439.348 0 .217-.135.309-.318.328l.338.531h-.215l-.312-.523h-.191v.523h-.001z"/></g></svg>